# xmcd
#
# Track frame offsets:
#	150
#	17132
#	33710
#	49207
#	64290
#	78532
#	91242
#	105072
#	121337
#	133040
#	145787
#	156370
#	174990
#	185750
#	205117
#	213109
#	231832
#	243932
#	258167
#	279485
#
# Disc length: 3925 seconds
#
# Revision: 1
# Processed by: cddbd v1.5.1PL2 Copyright (c) Steve Scherf et al.
# Submitted via: audiograbber 1.81.02
#
DISCID=150f5314
DTITLE=Various Artist - Schau ich zurück
DYEAR=2006
DGENRE=A Cappella
TTITLE0=Gott wird dich tragen
TTITLE1=Manches Herz will fast ermüden
TTITLE2=Wär gleich blutrot die Sünde
TTITLE3=Ich bin dein, o Herr
TTITLE4=Suchest du nach Frieden
TTITLE5=Ein guter Freund
TTITLE6=Der Herr ist mein Hirt
TTITLE7=Selig sind, die reinen Herzens sind
TTITLE8=Herr, du hast auch mich erlöst
TTITLE9=O Herr, wir danken dir für diese Welt
TTITLE10=Gib doch Gottes Liebe Raum
TTITLE11=Geh deinen Weg doch mit Jesus
TTITLE12=Unerschöpflich strömt die Quelle
TTITLE13=Herr, lass mich den Weg sehn
TTITLE14=Er wird kommen
TTITLE15=Bin überreich beschenkt
TTITLE16=Schau ich zurück
TTITLE17=Ich habe nun den Grund gefunden
TTITLE18=Tragt das Licht in die Welt
TTITLE19=Fürchte dich nicht
EXTD=www.gerth.de - ArtNo. 939318
EXTT0=
EXTT1=
EXTT2=
EXTT3=
EXTT4=
EXTT5=
EXTT6=
EXTT7=
EXTT8=
EXTT9=
EXTT10=
EXTT11=
EXTT12=
EXTT13=
EXTT14=
EXTT15=
EXTT16=
EXTT17=
EXTT18=
EXTT19=
PLAYORDER=
